<?xml version="1.0" encoding="UTF-8"?>
<svg xmlns="http://www.w3.org/2000/svg" xmlns:xlink="http://www.w3.org/1999/xlink" width="45px" height="100px" viewBox="0 0 45 100" version="1.1">
<g id="surface1">
<path style=" stroke:none;fill-rule:nonzero;fill:rgb(34.901961%,58.823529%,21.176471%);fill-opacity:1;" d="M 22.1875 0.273438 L 24.859375 5.285156 C 25.460938 6.210938 26.109375 7.03125 26.878906 7.792969 C 29.113281 10.027344 31.238281 12.367188 33.148438 14.875 C 37.675781 20.808594 40.730469 27.402344 42.910156 34.535156 C 44.21875 38.890625 44.929688 43.359375 44.980469 47.875 C 45.199219 61.382812 40.5625 72.984375 31.214844 82.621094 C 29.6875 84.148438 28.054688 85.558594 26.300781 86.816406 C 25.375 86.816406 24.9375 86.105469 24.554688 85.453125 C 23.847656 84.257812 23.410156 82.890625 23.191406 81.53125 C 22.863281 79.898438 22.648438 78.261719 22.753906 76.574219 L 22.753906 75.8125 C 22.679688 75.652344 21.863281 0.660156 22.1875 0.273438 Z M 22.1875 0.273438 "/>
<path style=" stroke:none;fill-rule:nonzero;fill:rgb(42.352941%,67.45098%,28.235294%);fill-opacity:1;" d="M 22.1875 0.105469 C 22.078125 -0.109375 21.96875 0.0546875 21.859375 0.160156 C 21.910156 1.253906 21.527344 2.230469 20.933594 3.160156 C 20.273438 4.085938 19.40625 4.796875 18.53125 5.558594 C 13.683594 9.75 9.863281 14.816406 6.804688 20.480469 C 2.738281 28.105469 0.640625 36.277344 0.046875 44.878906 C -0.222656 47.980469 1.03125 58.929688 2.011719 62.089844 C 4.683594 70.476562 9.484375 77.503906 15.699219 83.601562 C 17.226562 85.070312 18.859375 86.433594 20.550781 87.742188 C 21.042969 87.742188 21.09375 87.304688 21.207031 86.980469 C 21.421875 86.285156 21.585938 85.574219 21.699219 84.855469 L 22.792969 76.6875 Z M 22.1875 0.105469 "/>
<path style=" stroke:none;fill-rule:nonzero;fill:rgb(76.078431%,74.901961%,74.901961%);fill-opacity:1;" d="M 24.859375 90.132812 C 24.96875 88.882812 25.570312 87.84375 26.222656 86.8125 C 25.566406 86.539062 25.078125 86 24.695312 85.394531 C 24.367188 84.851562 24.097656 84.199219 23.882812 83.597656 C 23.121094 81.3125 22.957031 78.910156 22.738281 76.574219 L 22.738281 75.160156 C 22.464844 75.378906 22.410156 77.226562 22.410156 77.503906 C 22.257812 79.964844 21.917969 82.4375 21.425781 84.855469 C 21.265625 85.835938 21.15625 86.816406 20.550781 87.6875 C 20.550781 87.796875 20.550781 87.90625 20.605469 88.070312 C 21.585938 90.957031 21.855469 93.898438 22.019531 96.894531 L 22.019531 97.988281 C 22.019531 99.292969 21.96875 99.015625 23.054688 99.457031 C 23.492188 99.617188 23.980469 99.671875 24.417969 100 C 24.746094 100 24.800781 99.726562 24.800781 99.507812 L 24.636719 97.710938 L 24.636719 92.699219 C 24.582031 91.824219 24.746094 90.957031 24.855469 90.136719 Z M 24.859375 90.132812 "/>
</g>
</svg>
