<?xml version="1.0" encoding="UTF-8"?>
<svg xmlns="http://www.w3.org/2000/svg" xmlns:xlink="http://www.w3.org/1999/xlink" width="100px" height="100px" viewBox="0 0 100 100" version="1.1">
<g id="surface1">
<path style=" stroke:none;fill-rule:evenodd;fill:rgb(0%,84.705882%,100%);fill-opacity:1;" d="M 99.753906 50.015625 C 99.753906 42.574219 91.503906 35.53125 78.84375 31.152344 C 81.769531 16.59375 80.464844 5.015625 74.746094 1.308594 C 73.429688 0.4375 71.890625 0.0273438 70.203125 0.0273438 L 70.203125 5.136719 C 71.136719 5.136719 71.890625 5.347656 72.519531 5.730469 C 75.28125 7.511719 76.472656 14.308594 75.542969 23.054688 C 75.316406 25.203125 74.949219 27.46875 74.503906 29.78125 C 70.527344 28.683594 66.1875 27.835938 61.628906 27.285156 C 58.890625 23.054688 56.050781 19.207031 53.191406 15.847656 C 59.796875 8.902344 66 5.109375 70.222656 5.109375 L 70.222656 0 C 64.640625 0 57.34375 4.488281 49.960938 12.273438 C 42.574219 4.53125 35.277344 0.0898438 29.699219 0.0898438 L 29.699219 5.199219 C 33.894531 5.199219 40.121094 8.972656 46.738281 15.863281 C 43.894531 19.226562 41.058594 23.046875 38.363281 27.285156 C 33.78125 27.835938 29.4375 28.683594 25.460938 29.800781 C 24.992188 27.515625 24.652344 25.292969 24.410156 23.164062 C 23.453125 14.421875 24.636719 7.621094 27.375 5.8125 C 27.980469 5.402344 28.773438 5.21875 29.707031 5.21875 L 29.707031 0.117188 C 28.003906 0.117188 26.457031 0.53125 25.121094 1.398438 C 19.421875 5.109375 18.140625 16.667969 21.089844 31.179688 C 8.457031 35.566406 0.246094 42.59375 0.246094 50.015625 C 0.246094 57.453125 8.496094 64.496094 21.15625 68.875 C 18.230469 83.433594 19.535156 95.011719 25.253906 98.71875 C 26.570312 99.589844 28.109375 100 29.820312 100 C 35.398438 100 42.695312 95.511719 50.082031 87.726562 C 57.464844 95.46875 64.761719 99.910156 70.34375 99.910156 C 72.042969 99.910156 73.589844 99.496094 74.925781 98.628906 C 80.628906 94.917969 81.90625 83.359375 78.957031 68.847656 C 91.542969 64.480469 99.753906 57.425781 99.753906 50.015625 Z M 59.25 50.015625 C 59.25 44.238281 55.101562 39.550781 49.976562 39.550781 C 44.859375 39.550781 40.703125 44.230469 40.703125 50.015625 C 40.703125 55.796875 44.847656 60.476562 49.976562 60.476562 C 55.101562 60.46875 59.25 55.789062 59.25 50.015625 Z M 29.671875 0.0898438 Z M 73.347656 34.742188 C 72.59375 37.695312 71.664062 40.738281 70.609375 43.78125 C 69.777344 41.953125 68.910156 40.117188 67.953125 38.289062 C 67.023438 36.460938 66.027344 34.671875 65.03125 32.933594 C 67.914062 33.417969 70.691406 34.011719 73.347656 34.742188 Z M 64.058594 59.125 C 62.480469 62.214844 60.851562 65.148438 59.167969 67.871094 C 56.144531 68.171875 53.085938 68.328125 50 68.328125 C 46.9375 68.328125 43.878906 68.164062 40.875 67.886719 C 39.1875 65.164062 37.546875 62.257812 35.964844 59.1875 C 34.425781 56.191406 33.027344 53.148438 31.746094 50.078125 C 33.003906 47.007812 34.425781 43.945312 35.941406 40.949219 C 37.519531 37.859375 39.148438 34.925781 40.832031 32.203125 C 43.855469 31.902344 46.914062 31.746094 50 31.746094 C 53.0625 31.746094 56.121094 31.910156 59.125 32.183594 C 60.8125 34.90625 62.453125 37.8125 64.035156 40.882812 C 65.574219 43.882812 66.972656 46.925781 68.253906 49.996094 C 66.972656 53.058594 65.582031 56.117188 64.058594 59.125 Z M 70.609375 56.144531 C 71.703125 59.214844 72.632812 62.277344 73.410156 65.257812 C 70.753906 65.988281 67.953125 66.609375 65.054688 67.082031 C 66.050781 65.320312 67.039062 63.511719 67.976562 61.65625 C 68.902344 59.828125 69.777344 57.972656 70.609375 56.144531 Z M 50.039062 80.5625 C 48.152344 78.371094 46.265625 75.921875 44.402344 73.242188 C 46.226562 73.335938 48.097656 73.40625 49.984375 73.40625 C 51.886719 73.40625 53.773438 73.363281 55.621094 73.242188 C 53.789062 75.921875 51.902344 78.371094 50.039062 80.5625 Z M 34.953125 67.082031 C 32.070312 66.601562 29.292969 66.003906 26.636719 65.273438 C 27.390625 62.324219 28.320312 59.28125 29.375 56.238281 C 30.207031 58.066406 31.074219 59.902344 32.03125 61.730469 C 32.984375 63.566406 33.957031 65.347656 34.953125 67.082031 Z M 49.933594 19.457031 C 51.820312 21.648438 53.707031 24.097656 55.570312 26.773438 C 53.75 26.683594 51.878906 26.609375 49.992188 26.609375 C 48.089844 26.609375 46.203125 26.65625 44.355469 26.773438 C 46.1875 24.097656 48.074219 21.648438 49.933594 19.457031 Z M 34.929688 32.933594 C 33.933594 34.699219 32.945312 36.507812 32.007812 38.363281 C 31.074219 40.191406 30.199219 42.027344 29.367188 43.855469 C 28.273438 40.785156 27.339844 37.722656 26.5625 34.742188 C 29.226562 34.03125 32.03125 33.417969 34.929688 32.933594 Z M 16.570312 61.59375 C 9.386719 58.136719 4.746094 53.605469 4.746094 50.015625 C 4.746094 46.421875 9.394531 41.863281 16.570312 38.433594 C 18.3125 37.585938 20.222656 36.835938 22.191406 36.125 C 23.347656 40.609375 24.871094 45.28125 26.757812 50.058594 C 24.894531 54.820312 23.390625 59.460938 22.253906 63.929688 C 20.246094 63.21875 18.335938 62.441406 16.570312 61.59375 Z M 27.488281 94.296875 C 24.726562 92.515625 23.535156 85.71875 24.464844 76.972656 C 24.691406 74.824219 25.058594 72.558594 25.503906 70.246094 C 29.480469 71.34375 33.820312 72.191406 38.378906 72.742188 C 41.117188 76.972656 43.957031 80.820312 46.816406 84.183594 C 40.203125 91.117188 34 94.917969 29.777344 94.917969 C 28.863281 94.890625 28.09375 94.691406 27.488281 94.296875 Z M 75.597656 76.863281 C 76.554688 85.605469 75.371094 92.40625 72.632812 94.214844 C 72.027344 94.625 71.234375 94.808594 70.300781 94.808594 C 66.105469 94.808594 59.878906 91.035156 53.261719 84.144531 C 56.105469 80.78125 58.941406 76.960938 61.636719 72.722656 C 66.21875 72.175781 70.5625 71.324219 74.539062 70.199219 C 75.007812 72.511719 75.371094 74.734375 75.597656 76.863281 Z M 83.40625 61.59375 C 81.664062 62.441406 79.753906 63.191406 77.785156 63.902344 C 76.625 59.417969 75.105469 54.746094 73.21875 49.96875 C 75.078125 45.207031 76.585938 40.566406 77.71875 36.097656 C 79.726562 36.808594 81.632812 37.585938 83.421875 38.425781 C 90.605469 41.878906 95.246094 46.414062 95.246094 50.003906 C 95.226562 53.605469 90.585938 58.15625 83.40625 61.59375 Z M 83.40625 61.59375 "/>
</g>
</svg>
